<svg version="1.2" xmlns="http://www.w3.org/2000/svg" viewBox="0 0 2501 2502" width="2501" height="2502">
	<title>MonDb</title>
	<style>
		.s0 { opacity: .5;fill: #ffffff } 
		.s1 { fill: #599636 } 
		.s2 { fill: #6cac48 } 
		.s3 { fill: #c2bfbf } 
		.s4 { fill: #000000 } 
	</style>
	<path class="s0" d="m1918.6 2417h-1367.3c-111.2 0-201.3-113.9-201.3-254.5v-1728c0-140.6 90.1-254.5 201.3-254.5h1367.4c111.1 0 201.3 113.9 201.3 254.5v1728.1c-0.1 140.5-90.2 254.4-201.4 254.4z"/>
	<path class="s1" d="m1259.5 191.4l47.6 89.4c10.7 16.5 22.3 31.1 35.9 44.7 40 39.5 77.3 81.7 111.6 126.3 80.6 105.8 135 223.4 173.8 350.6 23.3 77.6 35.9 157.4 36.9 237.9 3.9 240.8-78.7 447.6-245.1 619.5-27 27.2-56.3 52.3-87.5 74.7-16.5 0-24.3-12.6-31.1-24.3-12.4-21.6-20.6-45.3-24.3-69.9-5.9-29.2-9.7-58.3-7.8-88.3v-13.6c-1.3-3.1-15.8-1340.1-10-1347z"/>
	<path class="s2" d="m1259.5 188.5c-1.9-3.9-3.9-1-5.9 1 1 19.5-5.8 36.9-16.4 53.5-11.7 16.5-27.2 29.2-42.8 42.8-86.3 74.7-154.3 165.1-208.7 266.1-72.5 135.9-109.8 281.6-120.3 435.1-4.8 55.3 17.5 250.5 35 306.7 47.6 149.6 133 274.9 243.8 383.6 27.2 26.2 56.3 50.5 86.3 73.9 8.8 0 9.7-7.8 11.7-13.6q5.8-18.6 8.7-37.8l19.5-145.6z"/>
	<path class="s3" d="m1307.1 1793.5c1.9-22.3 12.6-40.7 24.3-59.2-11.7-4.8-20.4-14.5-27.2-25.2-5.9-10.2-10.7-20.9-14.5-32.1-13.6-40.7-16.5-83.6-20.4-125.2v-25.2c-4.8 3.9-5.9 36.9-5.9 41.8-2.8 44.1-8.7 87.8-17.4 131.1-2.9 17.5-4.8 35-15.6 50.5 0 1.9 0 3.9 1 6.8 17.5 51.5 22.2 103.9 25.1 157.4v19.5c0 23.3-1 18.4 18.4 26.2 7.8 2.9 16.5 3.9 24.3 9.7 5.9 0 6.8-4.8 6.8-8.8l-2.9-32.1v-89.4c-0.9-15.6 2-31.1 4-45.8z"/>
	<path class="s4" d="m479.3 2227.4v43.2c0 1.7 0 3.4 0.3 5.1 0.5 5.1 3.7 8.2 8.3 9.7 4.3 1.1 8.7 1.9 13.1 2.5 2.5 0.3 3.3 1.4 3.6 4.2 0.3 9.7-0.5 10.8-9.9 10.2-21.8-1.1-43.8-1.4-65.6 0h-2.1c-6.8 0.3-7.3-0.3-7.3-7.1 0-1.2 0.3-2.6 0.3-3.7 0-2.1 1.4-3.2 3.4-3.2 4.6-0.5 8.7-1.7 13-2.5 5.9-1.5 9.4-5.1 9.9-11.2 0.8-6.5 0.8-13.3 0.8-19.9l0.4-76.1c0.2-4.5-2.3-8.7-6.3-10.9-5.1-2.8-10.6-5.1-16.2-6.8-1.7-0.5-3.4-0.8-4.8-1.7-4.2-2.1-4.3-5.8-0.3-8 1.4-0.8 3.1-1.4 4.8-1.7q6.4-1 12.8-2.3 6.4-1.3 12.8-2.9 6.3-1.6 12.5-3.5 6.3-1.9 12.4-4.1c3.4-1.1 4.3-0.8 4.6 2.5 0.3 2.1 0 4.6-0.3 6.6-0.5 3.7-0.5 7.3-0.5 10.8 0 1.4 0.3 2.9 1.7 3.7 1.5 0.8 2.9 0 4.2-0.8 5.9-4.6 12-8.8 18.5-12.5 9.4-5.1 19.3-9.7 30.1-11.1 13.1-1.8 24.4 1.7 34.4 10.2 4.1 3.7 7.8 7.8 10.9 12.4 2.8 4.2 3.1 4.3 6.8 1.5 10.8-8 22.2-15 34.4-20.2 12.8-5.5 25.8-6.3 38.9-1.8 13.4 4.8 22.5 14.2 27.9 27 4.6 10.2 6.5 20.8 6.5 31.8v76.2c0 5.1 2.1 8.3 7.2 10.8 5.4 2.1 11.3 3.2 17 4.3 3.7 0.8 3.7 0.8 3.7 4.6-0.5 9.4-1.4 9.9-10.5 9.4q-8.6-0.5-17.1-0.7-8.6-0.3-17.1-0.3-8.6 0-17.1 0.3-8.6 0.2-17.1 0.7c-4.6 0.3-4.6 0.3-4.8-4.3v-1.4c-0.3-7.7-0.3-7.7 7.1-9.4l7.4-2c5.1-1.3 8.8-5.9 8.8-11.2l0.8-21.3-0.5-55.7c-0.2-5-1.3-9.9-3.2-14.5-7.1-17.3-22.8-23.6-37.8-21.8-11.3 1.1-21.3 5.7-30.7 12.2-2.1 1.5-3.4 3.2-3.2 6 2.6 18.1 0.8 36.3 1.1 54.5v39.5c0 7.1 2.9 10.5 9.7 12.3l13.1 2.8c2.1 0.3 3.2 1.1 3.2 3.4v2c-0.3 8-0.8 8.3-8.8 8.3-22.8-1.1-45.4-0.8-67.9 0-7.7 0.3-8.3-0.5-8-8.3 0.3-4.6 0.8-4.8 5.1-5.7l9.4-1.7c8.3-1.8 11.4-4.8 12-13.7l0.8-19.1-0.5-57.1c-0.5-7.1-2.1-13.9-5.9-20.4-5.8-10.5-14.6-15.9-26.8-16.4-12.2-0.9-23 3.6-33.3 9.3-7.1 4.2-10.2 9.1-9.7 17.4v41.5zm535.4 1.7v40c0 2.9 0.2 5.7 0.5 8.5 0.2 3.9 3 7.1 6.8 8 4.9 1.4 9.9 2.2 15 2.5 2.9 0.3 3.4 1.4 3.7 3.7v2c-0.3 9.9-1.4 11.2-11.1 10.6-21.7-1.5-43.2-1.2-64.8 0l-8.2 0.3c-1.8 0-2.1-0.9-2.6-2.1q-0.3-1.5-0.4-3-0.2-1.5-0.2-3 0-1.5 0.2-3 0.1-1.5 0.4-2.9c0.3-1.8 1.5-2.1 3.2-2.6 4.2-0.5 7.6-1.4 11.6-2 7.2-1.8 9.7-4.6 9.9-12l0.8-23.9v-69.9c0-5.1-2-8.3-6.5-10.5-5.1-2.9-10.5-4.8-16.2-6.9-1.8-0.5-3.4-1.1-4.8-2-3.7-2.6-4.2-6.2-0.5-9.1 1.6-1.3 3.5-2.1 5.7-2.2 18.2-2.9 35.8-6.9 52.9-13.7 2-0.8 2.8-0.3 3.7 1.4 0.8 1.7 1.1 3.7 0.8 5.7l-0.8 13.4c0 1.7-0.9 4.2 0.5 4.8 1.7 1.1 2.8-1.4 4.3-2q3.1-2.7 6.4-5.1 3.3-2.4 6.8-4.6 3.4-2.2 7-4.2 3.6-2 7.3-3.7c8.8-4.2 17.9-6.9 28.1-6.2 19.1 1.1 32.7 10.8 41.5 27.5 4.6 8.8 6.5 18.5 7.3 28.4l0.8 20.8 0.3 62.8c0.3 4.8 2.1 8 6.9 9.7q1.8 0.7 3.7 1.2 1.9 0.5 3.9 1 1.9 0.4 3.8 0.8 1.9 0.4 3.9 0.7c4.6 0.5 4.8 1.4 5.1 5.7v1.5c-0.5 9.7-1.1 9.9-10.8 9.4q-8-0.5-15.9-0.7-8-0.2-15.9-0.2-8 0-15.9 0.2-8 0.2-15.9 0.7c-2.9 0.3-5.8 0-8.3 0.3-1.7 0-2.9-0.3-3.2-2.1-0.5-3.7-1.1-7.3-0.3-11.3 0.3-1.7 1.1-2.6 3.2-2.9l13.1-2c4.5-1.1 7.1-4.2 7.6-8.3l0.5-7.9-0.3-59.5c0-6.8-0.3-13.7-1.7-20.4-3.4-14.6-14.5-24.9-29.5-26.4-13.1-1.5-24.9 2-35.9 9-5.4 3.4-7.6 8.3-7.6 14.2v42.9c0-0.8 0-0.8 0.3-0.8z"/>
	<path class="s4" d="m1846.7 2148.7c-3.1-20.7-10.8-39.2-24.2-55.4-11.6-14.3-26.6-25.4-43.8-32.4-17.8-7.3-36.9-9.7-56.2-10.2-8-0.3-116.5 1.4-124.5 0-2-0.3-3.4 0.3-4.6 2.1-1.4 2-2.8 4.2-3.7 6.5-3.3 7.6-3.3 7.1 4.8 8.3 6.9 1.1 13.4 1.7 19.9 3.6 6 2.1 10.3 5.4 11.7 12 0.5 3.2 1.1 103.1 1.1 149.7l-1.1 33.3c-0.3 2.5-0.5 5.1-1.4 7.3-1.2 3.4-3.2 6.2-6.6 7.7-3.8 1.7-7.7 2.8-11.9 3.1-7.7 0.9-8.8 1.2-11.4 9.7l-0.8 3.2c-0.5 3.7-0.3 4.3 3.4 4.3l85 0.8 33.2-0.5 23-2.9c26.2-4.8 49.4-15.6 69.3-32.9 11.4-10 20.7-22.2 27.3-35.9 8-15.9 11.3-33.3 12.3-50.8 1.5-10.1 1-20.4-0.8-30.6zm-41.1 40.4c-1.1 18.1-4.8 35.8-14.2 51.6-11.9 20.8-29 35.3-52.6 40.4-10.2 2-20.4 3.1-31.1 1.7-7.7-0.8-15-1.7-22.2-4.3-12.7-4.6-17.3-12.4-17.5-24.9l-0.4-171.3c0-10.2 4.6-12.5 12-12.8 11.1-0.8 22.5-0.5 33.5 0.5 11.8 1.1 23.4 4 34.4 8.3 8.2 3.4 15.7 8.1 22.5 13.9 15.3 13 25.5 29.5 31.1 48.8 4.6 15.6 5.4 31.5 4.6 47.5zm277.3 27.8c0-1.7 0-3.1-0.3-4.8-2.5-15.6-10.8-27.5-23.6-36.6-8.2-5.9-17.5-9.9-27.2-12.8-1.8-0.5-3.2-1.1-4.8-1.4 0.3-1.4 1.1-1.8 2-2.1 5.7-2.8 11.1-5.9 15.9-10.2 8.8-7.3 14.6-16.4 17.6-27.5 1.7-6 1.7-12 1.1-18.2-0.9-14.8-8.6-28.4-20.7-37-13.1-9.7-28.4-13.7-44.3-13.9-30.8-0.5-61.7 0-92.3 0-8.8 0-17.6 0.5-26.8-0.8-1.7-0.3-4.2-0.8-5.4 1.1-2 3.7-4.6 7.4-5.4 11.7-0.3 2 0.3 3.1 2.6 3.4l19.6 2.8c7.6 1.1 13 5.4 13.6 12.3 0.6 4.7 0.9 9.5 0.9 14.2l-0.6 53.1-0.3 105c0 6.3-0.8 12.3-2 18.5-0.6 4.1-3.5 7.4-7.4 8.5-5.7 1.7-11.1 3.4-17 3.4-3.3-0.4-6.3 1.7-7.4 4.8-1.1 2.5-2 5.4-2.5 7.9-0.5 3.4 0.3 4.6 3.7 4.2 2.5-0.3 96.3 2 113.9 0.3 10.5-1.1 20.8-2.5 31.3-5.7 17.8-5.7 34.4-13.9 47.4-27.9 10.9-11.3 17.1-25 17.6-40.9 0.8-3.7 0.8-7.4 0.8-11.4zm-137.8-116.5l0.8-22.7c0-4.3 1.7-6.3 5.9-7.2 6.9-1.4 13.7-0.8 20.4-0.5 6.9 0.5 13.4 1.4 20.3 3.4 12.4 3.6 22.1 10.8 27.8 22.7 2.6 5.5 4 11.4 4 17.4 0.3 8-0.3 15.6-3.4 23.3-4.8 10.5-12.4 17.3-23.5 19.3-11.2 2-42.6 1.1-47.5 1.1-4.3 0-4.6-0.5-4.6-4.8v-26.8c-0.7-8.2-0.7-16.6-0.3-25zm92.3 152.9c-4.8 12.8-13.7 21.6-26.2 26.4-6.8 2.6-13.6 4.2-20.8 3.7-8.8-0.3-17.6 0-26.4-1.7-12-2.6-17.4-13.9-18.2-22.2-1.4-14.5-0.5-29.3-0.8-40v-37.5c0-4.6 0.5-5.9 5.4-5.9l26.7 0.3 18.2 2c12.8 2.9 24.4 7.7 33.5 17.6 7.4 8 11.3 17.6 12.3 28.1 0.8 9.9 0.3 19.6-3.4 29z"/>
	<path class="s4" d="m1315.5 2167.7l7.3 1.2c8 0.3 17.4-2.6 20.2-13.7q0.6-2 0.9-4 0.3-2.1 0.3-4.1 0-2.1-0.3-4.1-0.3-2.1-0.9-4.1c-1.7 0-2.5 1.5-3.3 2.1-4.3 3.3-9.1 5.4-14.2 5.9-10.2 1.1-20.4 0.5-30.4-3.2l-13.9-4.8c-9.7-3.1-19.9-4.5-30.2-3.9-14.5 1.1-28 5.9-40.9 12.7-13.7 7.4-23.3 18.5-27.9 33.5-2.5 8.8-2.8 17.9-1.7 27 2.8 20.7 13.7 35.2 33 42.9 1.1 0.3 2 0.8 3.1 1.1 2.6 1.4 2.9 2.8 0.5 4.8l-7.1 4.8-17.1 10.5c-4.2 2.5-4.8 4.6-3.3 9.1 1.7 5.3 4.8 10 9.1 13.7 3.8 3.3 8.2 6 13 7.9 3.2 1.5 3.2 2.1 0.3 4.6l-16.2 11.7c-5.4 4.1-10.8 8.2-15.3 13.6q-2.4 2.6-4.1 5.6-1.6 3-2.5 6.3-0.9 3.4-1 6.8 0 3.5 0.7 6.9c2.2 9.9 7.3 18.8 14.9 25.5q2.7 2.6 5.8 4.8 3 2.2 6.3 3.9 3.3 1.8 6.8 3.2 3.5 1.4 7.2 2.3c15.9 4.6 32.4 4.8 48.6 1.7 23.3-4.3 43.7-14.6 59.6-32 11.2-11.7 17.6-25.4 18.2-41.6 1.3-19.5-11.7-37-30.7-41.5l-15.3-2.8-46.9-4.2c-5.1-0.3-10.2-1.1-14.5-3.7-5.4-3.3-6.9-9.9-3.4-14.2 2.6-3.1 5.7-5.1 9.7-5.4l9.1-0.8q6.7-0.7 13.2-2.4 6.5-1.8 12.6-4.6 6.1-2.8 11.7-6.5 5.6-3.7 10.5-8.3 2.6-2.5 4.9-5.3 2.2-2.7 4.1-5.8 1.8-3.1 3.2-6.4 1.4-3.3 2.3-6.7c3.4-12.3 3.4-25 0.5-37.4-0.8-3.2-0.5-3.4 3.4-2.9zm-69.7 141.5c1.8 0.4 3.4 0 5.1 0 12 0.6 24.2 1.5 35.9 4.6 3.8 1.2 7.5 2.6 11.1 4.3 11.3 6.3 15.6 17.1 14.2 28.7-1.7 12.8-8.8 21.9-19.9 27.9-7.4 4.2-15.6 5.9-24.2 6.8-3.2 0.3-5.9 0-9.1 0-9.9 0.3-19.6-0.8-29-4.8-6.5-2.5-11.9-6.2-16.7-11.3-9.9-9.9-14.6-28.1 0.3-42.9 9.1-8.5 19.3-14.4 32.3-13.3zm32.5-88.6c-5.9 15-19.1 19.6-32.1 17.6-11.9-1.8-20.7-8.3-26.4-19.1-7.4-14.5-9.4-29.5-5.1-45.1 3.2-11.7 10.2-20.5 22.8-22.5 15.9-2.9 31.1 2.8 39.2 18.8 4.2 7.6 5.9 17 5.9 30.4-0.3 5.4-1.4 12.8-4.3 19.9zm-358-19.4c-2.5-15.3-8.3-29.3-18.8-40.9-15.6-17.4-35.5-24.9-58-25-19.6-0.4-38.1 5.4-54.5 15.6-16.2 9.7-28.1 25.2-33.3 43.5-4.8 16.4-4.6 33.3-0.8 50 9.9 44.9 44.6 64.2 86.1 61.4 12.2-0.8 23.9-4.8 34.9-10.2 16.4-7.7 28.4-19.9 36.7-36.1 6.5-13.4 9.3-27.6 9-43.8zm-40.3 63.1c-4.2 13.1-15.6 22.5-29.3 23.9-12.5 1.7-24.2-1.4-34.6-8.8-7.6-5.6-13.7-12.8-17.9-21.3-11.6-23.9-13.7-48.8-7.6-74.4 1.9-8 6-15.2 11.9-20.8 10.5-9.7 22.8-11.9 36.4-9.1 13 2.9 22.9 9.9 31.1 20.8 8.2 10.8 11.9 23.2 14.2 36.3 1.1 6.5 1.1 13.4 1.4 17.6 0 13.7-1.1 24.9-5.4 35.8zm661.2-60.7c-2.1-16.5-8.3-31.6-19.9-44-15.4-16.8-35.3-23.9-57.4-24.2-19.1-0.4-36.7 5.1-52.9 14.5-18.2 10.8-30.8 26.1-35.6 46.8-5.7 22.7-3.3 46.6 6.9 67.6 9.4 19.9 25.3 32.7 46.3 38.4 23.3 6.2 45.5 3.4 67.1-7.1q28.2-13.7 39.8-42.6c4.6-11.4 6.3-23.6 6.6-37.8 0.2-2.6-0.4-7.1-0.9-11.6zm-39.2 57c-4.6 15.4-14.2 25.4-30.5 27.6-11.9 1.7-23.3-1.1-33.5-8-8.7-5.9-15-13.8-19.6-23.2-5.1-9.9-7.9-20.5-9.1-31.3-1.7-13.4-1.7-26.4 1.5-39.8 0.6-2.7 1.4-5.2 2.5-7.7 8-19.9 25.6-29 46.4-24.4 13.9 3.2 24.4 10.9 32.3 22.5 7.7 11.3 11.4 23.9 13.1 37.4 0.8 5.4 1.1 11.1 0.8 15.9 0 11.1-0.8 21.3-4.2 31.2z"/>
</svg>